<svg width="1124" height="861" viewBox="0 0 1124 861" fill="none" xmlns="http://www.w3.org/2000/svg">
<path d="M109.359 50.1686C107.048 42.2254 101.426 34.0945 93.1017 26.6548C84.7772 19.215 76.0683 14.5385 67.9163 13.1307C58.6363 11.5281 50.5437 14.2475 44.5134 20.995C38.6206 27.5887 32.0086 43.0982 28.0601 59.5885C26.0652 67.9206 25.0127 75.5759 25.017 81.7265C25.0221 89.318 26.6398 94.6107 29.8249 97.4573C33.01 100.304 38.4505 101.319 45.995 100.475C52.1074 99.7906 59.597 97.8882 67.6533 94.9734C83.5982 89.2043 98.2705 80.898 104.163 74.3045C110.194 67.557 111.99 59.2111 109.359 50.1686Z" fill="#343333"/>
<path d="M244.05 242.795C251.119 235.725 253.164 225.223 250.558 214.766C251.059 209.868 254.586 207.981 257.03 207.258C258.433 207.132 259.859 206.875 261.281 206.428C270.292 203.62 276.773 194.515 274.196 190.438C272.476 187.714 270.753 186.129 265.641 188.655H265.638L265.634 188.659C265.051 188.946 264.424 189.288 263.751 189.687C261.898 190.506 259.091 191.208 257.258 189.16C255.399 187.084 256.389 183.678 257.371 181.451L282.673 155.751L282.682 155.761C282.726 155.709 282.77 155.66 282.814 155.608L283.482 154.93C285.81 152.837 288.921 152.451 290.602 154.132C290.677 154.207 290.723 154.3 290.792 154.382C290.892 154.13 291 153.873 291.12 153.613C292.345 150.928 294.512 147.858 297.401 144.968C300.037 142.332 302.825 140.289 305.334 139.019C305.576 138.896 305.81 138.794 306.045 138.684L307.329 137.4C307.225 136.586 307.355 135.574 308 134.368C308 134.368 305.896 131.444 305.742 129.544C305.66 128.541 305.053 128.302 304.494 128.296C303.995 128.29 303.535 128.467 303.535 128.467C303.535 128.467 303.711 128.007 303.704 127.507C303.696 126.949 303.458 126.339 302.456 126.259C300.558 126.105 297.634 124 297.634 124C296.428 124.647 295.416 124.776 294.6 124.671L293.316 125.955C293.21 126.191 293.106 126.425 292.984 126.667C291.716 129.174 289.671 131.964 287.034 134.6C284.145 137.488 281.074 139.659 278.39 140.882C278.129 141 277.873 141.109 277.621 141.209C277.703 141.277 277.795 141.324 277.871 141.401C279.391 142.92 279.229 145.614 277.638 147.837L251.325 174.564C249.079 175.829 244.954 177.604 243.046 174.873C240.896 171.796 242.271 168.151 242.913 166.805C243.005 166.629 243.097 166.454 243.181 166.286C243.183 166.282 243.192 166.268 243.192 166.268L243.189 166.266C245.742 161.122 244.152 159.398 241.423 157.672C237.346 155.095 228.244 161.578 225.433 170.588C225.203 171.32 225.037 172.054 224.895 172.787L224.885 172.783C224.885 172.783 224.879 172.847 224.867 172.953C224.807 173.277 224.74 173.601 224.695 173.923C224.118 176.563 221.89 182.812 213.796 181.963V181.965C205.009 180.982 196.576 183.366 190.596 189.344C178.705 201.236 181.028 222.843 195.79 237.603C210.553 252.362 232.157 254.686 244.05 242.795Z" fill="#343333"/>
<path d="M110.726 317.211C109.111 307.446 100.661 300.288 90.7631 300.301C84.7947 300.315 78.9894 302.25 74.2068 305.821L29.0559 339.683V355.767L11 375.114L15.6061 379.415L35.3571 358.271V342.834L77.9844 310.862C81.6759 308.106 86.1566 306.613 90.7631 306.602C98.4436 306.601 104.671 312.826 104.672 320.506C104.673 327.306 99.7574 333.109 93.0504 334.226C89.189 334.866 85.8035 337.17 83.7909 340.527L70.9838 361.869C69.2689 364.711 66.1961 366.452 62.8774 366.463H52.868L31.8915 389.547L36.5575 393.788L55.6531 372.764H62.8774C68.4066 372.748 73.5269 369.848 76.3839 365.114L89.1941 343.779C90.2565 342.003 92.0456 340.784 94.087 340.445C105.098 338.624 112.547 328.221 110.726 317.211Z" fill="#343333"/>
<path d="M73.1639 294H66.8628V300.301H73.1639V294Z" fill="#343333"/>
<path d="M60.5616 303.451H54.2605V309.752H60.5616V303.451Z" fill="#343333"/>
<path d="M47.9594 312.903H41.6582V319.204H47.9594V312.903Z" fill="#343333"/>
<path d="M35.3571 322.355H29.0559V328.657H35.3571V322.355Z" fill="#343333"/>
<path d="M85.7662 316.055H79.4651V322.356H85.7662V316.055Z" fill="#343333"/>
<path d="M73.1639 325.506H66.8628V331.807H73.1639V325.506Z" fill="#343333"/>
<path d="M60.5616 334.957H54.2605V341.258H60.5616V334.957Z" fill="#343333"/>
<path d="M47.9594 344.409H41.6582V350.71H47.9594V344.409Z" fill="#343333"/>
<path d="M109.359 517.169C107.048 509.225 101.426 501.094 93.1017 493.655C84.7772 486.215 76.0683 481.539 67.9163 480.131C58.6363 478.528 50.5437 481.247 44.5134 487.995C38.6206 494.589 32.0086 510.098 28.0601 526.589C26.0652 534.921 25.0127 542.576 25.017 548.726C25.0221 556.318 26.6398 561.611 29.8249 564.457C33.01 567.304 38.4505 568.319 45.995 567.475C52.1074 566.791 59.597 564.888 67.6533 561.973C83.5982 556.204 98.2705 547.898 104.163 541.305C110.194 534.557 111.99 526.211 109.359 517.169Z" fill="#343333"/>
<path d="M244.05 709.795C251.119 702.725 253.164 692.223 250.558 681.766C251.059 676.868 254.586 674.981 257.03 674.258C258.433 674.132 259.859 673.875 261.281 673.428C270.292 670.62 276.773 661.515 274.196 657.438C272.476 654.714 270.753 653.129 265.641 655.655H265.638L265.634 655.659C265.051 655.946 264.424 656.288 263.751 656.687C261.898 657.506 259.091 658.208 257.258 656.16C255.399 654.084 256.389 650.678 257.371 648.451L282.673 622.751L282.682 622.761C282.726 622.709 282.77 622.66 282.814 622.608L283.482 621.93C285.81 619.837 288.921 619.451 290.602 621.132C290.677 621.207 290.723 621.3 290.792 621.382C290.892 621.13 291 620.873 291.12 620.613C292.345 617.928 294.512 614.858 297.401 611.968C300.037 609.332 302.825 607.289 305.334 606.019C305.576 605.896 305.81 605.794 306.045 605.684L307.329 604.4C307.225 603.586 307.355 602.574 308 601.368C308 601.368 305.896 598.444 305.742 596.544C305.66 595.541 305.053 595.302 304.494 595.296C303.995 595.29 303.535 595.467 303.535 595.467C303.535 595.467 303.711 595.007 303.704 594.507C303.696 593.949 303.458 593.339 302.456 593.259C300.558 593.105 297.634 591 297.634 591C296.428 591.647 295.416 591.776 294.6 591.671L293.316 592.955C293.21 593.191 293.106 593.425 292.984 593.667C291.716 596.174 289.671 598.964 287.034 601.6C284.145 604.488 281.074 606.659 278.39 607.882C278.129 608 277.873 608.109 277.621 608.209C277.703 608.277 277.795 608.324 277.871 608.401C279.391 609.92 279.229 612.614 277.638 614.837L251.325 641.564C249.079 642.829 244.954 644.604 243.046 641.873C240.896 638.796 242.271 635.151 242.913 633.805C243.005 633.629 243.097 633.454 243.181 633.286C243.183 633.282 243.192 633.268 243.192 633.268L243.189 633.266C245.742 628.122 244.152 626.398 241.423 624.672C237.346 622.095 228.244 628.578 225.433 637.588C225.203 638.32 225.037 639.054 224.895 639.787L224.885 639.783C224.885 639.783 224.879 639.847 224.867 639.953C224.807 640.277 224.74 640.601 224.695 640.923C224.118 643.563 221.89 649.812 213.796 648.963V648.965C205.009 647.982 196.576 650.366 190.596 656.344C178.705 668.236 181.028 689.843 195.79 704.603C210.553 719.362 232.157 721.686 244.05 709.795Z" fill="#343333"/>
<path d="M110.726 784.211C109.111 774.446 100.661 767.288 90.7631 767.301C84.7947 767.315 78.9894 769.25 74.2068 772.821L29.0559 806.683V822.767L11 842.114L15.6061 846.415L35.3571 825.271V809.834L77.9844 777.862C81.6759 775.106 86.1566 773.613 90.7631 773.602C98.4436 773.601 104.671 779.826 104.672 787.506C104.673 794.306 99.7574 800.109 93.0504 801.226C89.189 801.866 85.8035 804.17 83.7909 807.527L70.9838 828.869C69.2689 831.711 66.1961 833.452 62.8774 833.463H52.868L31.8915 856.547L36.5575 860.788L55.6531 839.764H62.8774C68.4066 839.748 73.5269 836.848 76.3839 832.114L89.1941 810.779C90.2565 809.003 92.0456 807.784 94.087 807.445C105.098 805.624 112.547 795.221 110.726 784.211Z" fill="#343333"/>
<path d="M73.1639 761H66.8628V767.301H73.1639V761Z" fill="#343333"/>
<path d="M60.5616 770.451H54.2605V776.752H60.5616V770.451Z" fill="#343333"/>
<path d="M47.9594 779.903H41.6582V786.204H47.9594V779.903Z" fill="#343333"/>
<path d="M35.3571 789.355H29.0559V795.657H35.3571V789.355Z" fill="#343333"/>
<path d="M85.7662 783.055H79.4651V789.356H85.7662V783.055Z" fill="#343333"/>
<path d="M73.1639 792.506H66.8628V798.807H73.1639V792.506Z" fill="#343333"/>
<path d="M60.5616 801.957H54.2605V808.258H60.5616V801.957Z" fill="#343333"/>
<path d="M47.9594 811.409H41.6582V817.71H47.9594V811.409Z" fill="#343333"/>
<path d="M517.359 50.1686C515.048 42.2254 509.426 34.0945 501.102 26.6548C492.777 19.215 484.068 14.5385 475.916 13.1307C466.636 11.5281 458.544 14.2475 452.513 20.995C446.621 27.5887 440.009 43.0982 436.06 59.5885C434.065 67.9206 433.013 75.5759 433.017 81.7265C433.022 89.318 434.64 94.6107 437.825 97.4573C441.01 100.304 446.451 101.319 453.995 100.475C460.107 99.7906 467.597 97.8882 475.653 94.9734C491.598 89.2043 506.271 80.898 512.163 74.3045C518.194 67.557 519.99 59.2111 517.359 50.1686Z" fill="#343333"/>
<path d="M652.05 242.795C659.119 235.725 661.164 225.223 658.558 214.766C659.059 209.868 662.586 207.981 665.03 207.258C666.433 207.132 667.859 206.875 669.281 206.428C678.292 203.62 684.773 194.515 682.196 190.438C680.476 187.714 678.753 186.129 673.641 188.655H673.638L673.634 188.659C673.051 188.946 672.424 189.288 671.751 189.687C669.898 190.506 667.091 191.208 665.258 189.16C663.399 187.084 664.389 183.678 665.371 181.451L690.673 155.751L690.682 155.761C690.726 155.709 690.77 155.66 690.814 155.608L691.482 154.93C693.81 152.837 696.921 152.451 698.602 154.132C698.677 154.207 698.723 154.3 698.792 154.382C698.892 154.13 699 153.873 699.12 153.613C700.345 150.928 702.512 147.858 705.401 144.968C708.037 142.332 710.825 140.289 713.334 139.019C713.576 138.896 713.81 138.794 714.045 138.684L715.329 137.4C715.225 136.586 715.355 135.574 716 134.368C716 134.368 713.896 131.444 713.742 129.544C713.66 128.541 713.053 128.302 712.494 128.296C711.995 128.29 711.535 128.467 711.535 128.467C711.535 128.467 711.711 128.007 711.704 127.507C711.696 126.949 711.458 126.339 710.456 126.259C708.558 126.105 705.634 124 705.634 124C704.428 124.647 703.416 124.776 702.6 124.671L701.316 125.955C701.21 126.191 701.106 126.425 700.984 126.667C699.716 129.174 697.671 131.964 695.034 134.6C692.145 137.488 689.074 139.659 686.39 140.882C686.129 141 685.873 141.109 685.621 141.209C685.703 141.277 685.795 141.324 685.871 141.401C687.391 142.92 687.229 145.614 685.638 147.837L659.325 174.564C657.079 175.829 652.954 177.604 651.046 174.873C648.896 171.796 650.271 168.151 650.913 166.805C651.005 166.629 651.097 166.454 651.181 166.286C651.183 166.282 651.192 166.268 651.192 166.268L651.189 166.266C653.742 161.122 652.152 159.398 649.423 157.672C645.346 155.095 636.244 161.578 633.433 170.588C633.203 171.32 633.037 172.054 632.895 172.787L632.885 172.783C632.885 172.783 632.879 172.847 632.867 172.953C632.807 173.277 632.74 173.601 632.695 173.923C632.118 176.563 629.89 182.812 621.796 181.963V181.965C613.009 180.982 604.576 183.366 598.596 189.344C586.705 201.236 589.028 222.843 603.79 237.603C618.553 252.362 640.157 254.686 652.05 242.795Z" fill="#343333"/>
<path d="M518.726 317.211C517.111 307.446 508.661 300.288 498.763 300.301C492.795 300.315 486.989 302.25 482.207 305.821L437.056 339.683V355.767L419 375.114L423.606 379.415L443.357 358.271V342.834L485.984 310.862C489.676 308.106 494.157 306.613 498.763 306.602C506.444 306.601 512.671 312.826 512.672 320.506C512.673 327.306 507.757 333.109 501.05 334.226C497.189 334.866 493.804 337.17 491.791 340.527L478.984 361.869C477.269 364.711 474.196 366.452 470.877 366.463H460.868L439.891 389.547L444.557 393.788L463.653 372.764H470.877C476.407 372.748 481.527 369.848 484.384 365.114L497.194 343.779C498.256 342.003 500.046 340.784 502.087 340.445C513.098 338.624 520.547 328.221 518.726 317.211Z" fill="#343333"/>
<path d="M481.164 294H474.863V300.301H481.164V294Z" fill="#343333"/>
<path d="M468.562 303.451H462.26V309.752H468.562V303.451Z" fill="#343333"/>
<path d="M455.959 312.903H449.658V319.204H455.959V312.903Z" fill="#343333"/>
<path d="M443.357 322.355H437.056V328.657H443.357V322.355Z" fill="#343333"/>
<path d="M493.766 316.055H487.465V322.356H493.766V316.055Z" fill="#343333"/>
<path d="M481.164 325.506H474.863V331.807H481.164V325.506Z" fill="#343333"/>
<path d="M468.562 334.957H462.26V341.258H468.562V334.957Z" fill="#343333"/>
<path d="M455.959 344.409H449.658V350.71H455.959V344.409Z" fill="#343333"/>
<path d="M517.359 517.169C515.048 509.225 509.426 501.094 501.102 493.655C492.777 486.215 484.068 481.539 475.916 480.131C466.636 478.528 458.544 481.247 452.513 487.995C446.621 494.589 440.009 510.098 436.06 526.589C434.065 534.921 433.013 542.576 433.017 548.726C433.022 556.318 434.64 561.611 437.825 564.457C441.01 567.304 446.451 568.319 453.995 567.475C460.107 566.791 467.597 564.888 475.653 561.973C491.598 556.204 506.271 547.898 512.163 541.305C518.194 534.557 519.99 526.211 517.359 517.169Z" fill="#343333"/>
<path d="M652.05 709.795C659.119 702.725 661.164 692.223 658.558 681.766C659.059 676.868 662.586 674.981 665.03 674.258C666.433 674.132 667.859 673.875 669.281 673.428C678.292 670.62 684.773 661.515 682.196 657.438C680.476 654.714 678.753 653.129 673.641 655.655H673.638L673.634 655.659C673.051 655.946 672.424 656.288 671.751 656.687C669.898 657.506 667.091 658.208 665.258 656.16C663.399 654.084 664.389 650.678 665.371 648.451L690.673 622.751L690.682 622.761C690.726 622.709 690.77 622.66 690.814 622.608L691.482 621.93C693.81 619.837 696.921 619.451 698.602 621.132C698.677 621.207 698.723 621.3 698.792 621.382C698.892 621.13 699 620.873 699.12 620.613C700.345 617.928 702.512 614.858 705.401 611.968C708.037 609.332 710.825 607.289 713.334 606.019C713.576 605.896 713.81 605.794 714.045 605.684L715.329 604.4C715.225 603.586 715.355 602.574 716 601.368C716 601.368 713.896 598.444 713.742 596.544C713.66 595.541 713.053 595.302 712.494 595.296C711.995 595.29 711.535 595.467 711.535 595.467C711.535 595.467 711.711 595.007 711.704 594.507C711.696 593.949 711.458 593.339 710.456 593.259C708.558 593.105 705.634 591 705.634 591C704.428 591.647 703.416 591.776 702.6 591.671L701.316 592.955C701.21 593.191 701.106 593.425 700.984 593.667C699.716 596.174 697.671 598.964 695.034 601.6C692.145 604.488 689.074 606.659 686.39 607.882C686.129 608 685.873 608.109 685.621 608.209C685.703 608.277 685.795 608.324 685.871 608.401C687.391 609.92 687.229 612.614 685.638 614.837L659.325 641.564C657.079 642.829 652.954 644.604 651.046 641.873C648.896 638.796 650.271 635.151 650.913 633.805C651.005 633.629 651.097 633.454 651.181 633.286C651.183 633.282 651.192 633.268 651.192 633.268L651.189 633.266C653.742 628.122 652.152 626.398 649.423 624.672C645.346 622.095 636.244 628.578 633.433 637.588C633.203 638.32 633.037 639.054 632.895 639.787L632.885 639.783C632.885 639.783 632.879 639.847 632.867 639.953C632.807 640.277 632.74 640.601 632.695 640.923C632.118 643.563 629.89 649.812 621.796 648.963V648.965C613.009 647.982 604.576 650.366 598.596 656.344C586.705 668.236 589.028 689.843 603.79 704.603C618.553 719.362 640.157 721.686 652.05 709.795Z" fill="#343333"/>
<path d="M518.726 784.211C517.111 774.446 508.661 767.288 498.763 767.301C492.795 767.315 486.989 769.25 482.207 772.821L437.056 806.683V822.767L419 842.114L423.606 846.415L443.357 825.271V809.834L485.984 777.862C489.676 775.106 494.157 773.613 498.763 773.602C506.444 773.601 512.671 779.826 512.672 787.506C512.673 794.306 507.757 800.109 501.05 801.226C497.189 801.866 493.804 804.17 491.791 807.527L478.984 828.869C477.269 831.711 474.196 833.452 470.877 833.463H460.868L439.891 856.547L444.557 860.788L463.653 839.764H470.877C476.407 839.748 481.527 836.848 484.384 832.114L497.194 810.779C498.256 809.003 500.046 807.784 502.087 807.445C513.098 805.624 520.547 795.221 518.726 784.211Z" fill="#343333"/>
<path d="M481.164 761H474.863V767.301H481.164V761Z" fill="#343333"/>
<path d="M468.562 770.451H462.26V776.752H468.562V770.451Z" fill="#343333"/>
<path d="M455.959 779.903H449.658V786.204H455.959V779.903Z" fill="#343333"/>
<path d="M443.357 789.355H437.056V795.657H443.357V789.355Z" fill="#343333"/>
<path d="M493.766 783.055H487.465V789.356H493.766V783.055Z" fill="#343333"/>
<path d="M481.164 792.506H474.863V798.807H481.164V792.506Z" fill="#343333"/>
<path d="M468.562 801.957H462.26V808.258H468.562V801.957Z" fill="#343333"/>
<path d="M455.959 811.409H449.658V817.71H455.959V811.409Z" fill="#343333"/>
<path d="M925.359 50.1686C923.048 42.2254 917.426 34.0945 909.102 26.6548C900.777 19.215 892.068 14.5385 883.916 13.1307C874.636 11.5281 866.544 14.2475 860.513 20.995C854.621 27.5887 848.009 43.0982 844.06 59.5885C842.065 67.9206 841.013 75.5759 841.017 81.7265C841.022 89.318 842.64 94.6107 845.825 97.4573C849.01 100.304 854.451 101.319 861.995 100.475C868.107 99.7906 875.597 97.8882 883.653 94.9734C899.598 89.2043 914.271 80.898 920.163 74.3045C926.194 67.557 927.99 59.2111 925.359 50.1686Z" fill="#343333"/>
<path d="M1060.05 242.795C1067.12 235.725 1069.16 225.223 1066.56 214.766C1067.06 209.868 1070.59 207.981 1073.03 207.258C1074.43 207.132 1075.86 206.875 1077.28 206.428C1086.29 203.62 1092.77 194.515 1090.2 190.438C1088.48 187.714 1086.75 186.129 1081.64 188.655H1081.64L1081.63 188.659C1081.05 188.946 1080.42 189.288 1079.75 189.687C1077.9 190.506 1075.09 191.208 1073.26 189.16C1071.4 187.084 1072.39 183.678 1073.37 181.451L1098.67 155.751L1098.68 155.761C1098.73 155.709 1098.77 155.66 1098.81 155.608L1099.48 154.93C1101.81 152.837 1104.92 152.451 1106.6 154.132C1106.68 154.207 1106.72 154.3 1106.79 154.382C1106.89 154.13 1107 153.873 1107.12 153.613C1108.34 150.928 1110.51 147.858 1113.4 144.968C1116.04 142.332 1118.83 140.289 1121.33 139.019C1121.58 138.896 1121.81 138.794 1122.05 138.684L1123.33 137.4C1123.22 136.586 1123.36 135.574 1124 134.368C1124 134.368 1121.9 131.444 1121.74 129.544C1121.66 128.541 1121.05 128.302 1120.49 128.296C1120 128.29 1119.53 128.467 1119.53 128.467C1119.53 128.467 1119.71 128.007 1119.7 127.507C1119.7 126.949 1119.46 126.339 1118.46 126.259C1116.56 126.105 1113.63 124 1113.63 124C1112.43 124.647 1111.42 124.776 1110.6 124.671L1109.32 125.955C1109.21 126.191 1109.11 126.425 1108.98 126.667C1107.72 129.174 1105.67 131.964 1103.03 134.6C1100.15 137.488 1097.07 139.659 1094.39 140.882C1094.13 141 1093.87 141.109 1093.62 141.209C1093.7 141.277 1093.79 141.324 1093.87 141.401C1095.39 142.92 1095.23 145.614 1093.64 147.837L1067.32 174.564C1065.08 175.829 1060.95 177.604 1059.05 174.873C1056.9 171.796 1058.27 168.151 1058.91 166.805C1059 166.629 1059.1 166.454 1059.18 166.286C1059.18 166.282 1059.19 166.268 1059.19 166.268L1059.19 166.266C1061.74 161.122 1060.15 159.398 1057.42 157.672C1053.35 155.095 1044.24 161.578 1041.43 170.588C1041.2 171.32 1041.04 172.054 1040.89 172.787L1040.89 172.783C1040.89 172.783 1040.88 172.847 1040.87 172.953C1040.81 173.277 1040.74 173.601 1040.69 173.923C1040.12 176.563 1037.89 182.812 1029.8 181.963V181.965C1021.01 180.982 1012.58 183.366 1006.6 189.344C994.705 201.236 997.028 222.843 1011.79 237.603C1026.55 252.362 1048.16 254.686 1060.05 242.795Z" fill="#343333"/>
<path d="M926.726 317.211C925.111 307.446 916.661 300.288 906.763 300.301C900.795 300.315 894.989 302.25 890.207 305.821L845.056 339.683V355.767L827 375.114L831.606 379.415L851.357 358.271V342.834L893.984 310.862C897.676 308.106 902.157 306.613 906.763 306.602C914.444 306.601 920.671 312.826 920.672 320.506C920.673 327.306 915.757 333.109 909.05 334.226C905.189 334.866 901.804 337.17 899.791 340.527L886.984 361.869C885.269 364.711 882.196 366.452 878.877 366.463H868.868L847.891 389.547L852.557 393.788L871.653 372.764H878.877C884.407 372.748 889.527 369.848 892.384 365.114L905.194 343.779C906.256 342.003 908.046 340.784 910.087 340.445C921.098 338.624 928.547 328.221 926.726 317.211Z" fill="#343333"/>
<path d="M889.164 294H882.863V300.301H889.164V294Z" fill="#343333"/>
<path d="M876.562 303.451H870.261V309.752H876.562V303.451Z" fill="#343333"/>
<path d="M863.959 312.903H857.658V319.204H863.959V312.903Z" fill="#343333"/>
<path d="M851.357 322.355H845.056V328.657H851.357V322.355Z" fill="#343333"/>
<path d="M901.766 316.055H895.465V322.356H901.766V316.055Z" fill="#343333"/>
<path d="M889.164 325.506H882.863V331.807H889.164V325.506Z" fill="#343333"/>
<path d="M876.562 334.957H870.261V341.258H876.562V334.957Z" fill="#343333"/>
<path d="M863.959 344.409H857.658V350.71H863.959V344.409Z" fill="#343333"/>
<path d="M925.359 517.169C923.048 509.225 917.426 501.094 909.102 493.655C900.777 486.215 892.068 481.539 883.916 480.131C874.636 478.528 866.544 481.247 860.513 487.995C854.621 494.589 848.009 510.098 844.06 526.589C842.065 534.921 841.013 542.576 841.017 548.726C841.022 556.318 842.64 561.611 845.825 564.457C849.01 567.304 854.451 568.319 861.995 567.475C868.107 566.791 875.597 564.888 883.653 561.973C899.598 556.204 914.271 547.898 920.163 541.305C926.194 534.557 927.99 526.211 925.359 517.169Z" fill="#343333"/>
<path d="M1060.05 709.795C1067.12 702.725 1069.16 692.223 1066.56 681.766C1067.06 676.868 1070.59 674.981 1073.03 674.258C1074.43 674.132 1075.86 673.875 1077.28 673.428C1086.29 670.62 1092.77 661.515 1090.2 657.438C1088.48 654.714 1086.75 653.129 1081.64 655.655H1081.64L1081.63 655.659C1081.05 655.946 1080.42 656.288 1079.75 656.687C1077.9 657.506 1075.09 658.208 1073.26 656.16C1071.4 654.084 1072.39 650.678 1073.37 648.451L1098.67 622.751L1098.68 622.761C1098.73 622.709 1098.77 622.66 1098.81 622.608L1099.48 621.93C1101.81 619.837 1104.92 619.451 1106.6 621.132C1106.68 621.207 1106.72 621.3 1106.79 621.382C1106.89 621.13 1107 620.873 1107.12 620.613C1108.34 617.928 1110.51 614.858 1113.4 611.968C1116.04 609.332 1118.83 607.289 1121.33 606.019C1121.58 605.896 1121.81 605.794 1122.05 605.684L1123.33 604.4C1123.22 603.586 1123.36 602.574 1124 601.368C1124 601.368 1121.9 598.444 1121.74 596.544C1121.66 595.541 1121.05 595.302 1120.49 595.296C1120 595.29 1119.53 595.467 1119.53 595.467C1119.53 595.467 1119.71 595.007 1119.7 594.507C1119.7 593.949 1119.46 593.339 1118.46 593.259C1116.56 593.105 1113.63 591 1113.63 591C1112.43 591.647 1111.42 591.776 1110.6 591.671L1109.32 592.955C1109.21 593.191 1109.11 593.425 1108.98 593.667C1107.72 596.174 1105.67 598.964 1103.03 601.6C1100.15 604.488 1097.07 606.659 1094.39 607.882C1094.13 608 1093.87 608.109 1093.62 608.209C1093.7 608.277 1093.79 608.324 1093.87 608.401C1095.39 609.92 1095.23 612.614 1093.64 614.837L1067.32 641.564C1065.08 642.829 1060.95 644.604 1059.05 641.873C1056.9 638.796 1058.27 635.151 1058.91 633.805C1059 633.629 1059.1 633.454 1059.18 633.286C1059.18 633.282 1059.19 633.268 1059.19 633.268L1059.19 633.266C1061.74 628.122 1060.15 626.398 1057.42 624.672C1053.35 622.095 1044.24 628.578 1041.43 637.588C1041.2 638.32 1041.04 639.054 1040.89 639.787L1040.89 639.783C1040.89 639.783 1040.88 639.847 1040.87 639.953C1040.81 640.277 1040.74 640.601 1040.69 640.923C1040.12 643.563 1037.89 649.812 1029.8 648.963V648.965C1021.01 647.982 1012.58 650.366 1006.6 656.344C994.705 668.236 997.028 689.843 1011.79 704.603C1026.55 719.362 1048.16 721.686 1060.05 709.795Z" fill="#343333"/>
<path d="M926.726 784.211C925.111 774.446 916.661 767.288 906.763 767.301C900.795 767.315 894.989 769.25 890.207 772.821L845.056 806.683V822.767L827 842.114L831.606 846.415L851.357 825.271V809.834L893.984 777.862C897.676 775.106 902.157 773.613 906.763 773.602C914.444 773.601 920.671 779.826 920.672 787.506C920.673 794.306 915.757 800.109 909.05 801.226C905.189 801.866 901.804 804.17 899.791 807.527L886.984 828.869C885.269 831.711 882.196 833.452 878.877 833.463H868.868L847.891 856.547L852.557 860.788L871.653 839.764H878.877C884.407 839.748 889.527 836.848 892.384 832.114L905.194 810.779C906.256 809.003 908.046 807.784 910.087 807.445C921.098 805.624 928.547 795.221 926.726 784.211Z" fill="#343333"/>
<path d="M889.164 761H882.863V767.301H889.164V761Z" fill="#343333"/>
<path d="M876.562 770.451H870.261V776.752H876.562V770.451Z" fill="#343333"/>
<path d="M863.959 779.903H857.658V786.204H863.959V779.903Z" fill="#343333"/>
<path d="M851.357 789.355H845.056V795.657H851.357V789.355Z" fill="#343333"/>
<path d="M901.766 783.055H895.465V789.356H901.766V783.055Z" fill="#343333"/>
<path d="M889.164 792.506H882.863V798.807H889.164V792.506Z" fill="#343333"/>
<path d="M876.562 801.957H870.261V808.258H876.562V801.957Z" fill="#343333"/>
<path d="M863.959 811.409H857.658V817.71H863.959V811.409Z" fill="#343333"/>
</svg>
